<svg xmlns="http://www.w3.org/2000/svg" viewBox="0 0 256 256" width="256" height="256">
    <rect x="8" y="8" width="240" height="240" rx="48" fill="#1e1e2e" stroke="#313244" stroke-width="4"/>
    
    <circle cx="128" cy="128" r="80" fill="#181825" />
    
    <circle cx="128" cy="128" r="80" fill="#89b4fa" opacity="0.1" />
    
    <g transform="translate(68, 68) scale(5)" fill="none" stroke="#89b4fa" stroke-width="2" stroke-linecap="round" stroke-linejoin="round">
        <path stroke="none" d="M0 0h24v24H0z" fill="none"/><path d="M5 5m0 1a1 1 0 0 1 1 -1h12a1 1 0 0 1 1 1v12a1 1 0 0 1 -1 1h-12a1 1 0 0 1 -1 -1z" /><path d="M9 9h6v6h-6z" /><path d="M3 10h2" /><path d="M3 14h2" /><path d="M10 3v2" /><path d="M14 3v2" /><path d="M21 10h-2" /><path d="M21 14h-2" /><path d="M14 21v-2" /><path d="M10 21v-2" />
    </g>
</svg>