<svg xmlns="http://www.w3.org/2000/svg" viewBox="0 0 256 256" width="256" height="256">
    <rect x="8" y="8" width="240" height="240" rx="48" fill="#1e1e2e" stroke="#313244" stroke-width="4"/>
    
    <circle cx="128" cy="128" r="80" fill="#181825" />
    
    <circle cx="128" cy="128" r="80" fill="#94e2d5" opacity="0.1" />
    
    <g transform="translate(68, 68) scale(5)" fill="none" stroke="#94e2d5" stroke-width="2" stroke-linecap="round" stroke-linejoin="round">
        <path stroke="none" d="M0 0h24v24H0z" fill="none"/><path d="M10 12a2 2 0 1 0 4 0a2 2 0 0 0 -4 0" /><path d="M21 12c-2.4 4 -5.4 6 -9 6c-3.6 0 -6.6 -2 -9 -6c2.4 -4 5.4 -6 9 -6c3.6 0 6.6 2 9 6" />
    </g>
</svg>