<svg xmlns="http://www.w3.org/2000/svg" viewBox="0 0 256 256" width="256" height="256">
    <rect x="8" y="8" width="240" height="240" rx="48" fill="#1e1e2e" stroke="#313244" stroke-width="4"/>
    
    <circle cx="128" cy="128" r="80" fill="#181825" />
    
    <circle cx="128" cy="128" r="80" fill="#89b4fa" opacity="0.1" />
    
    <g transform="translate(68, 68) scale(5)" fill="none" stroke="#89b4fa" stroke-width="2" stroke-linecap="round" stroke-linejoin="round">
        <path stroke="none" d="M0 0h24v24H0z" fill="none"/>
        <path d="M15 10l4.553 -2.276a1 1 0 0 1 1.447 .894v6.764a1 1 0 0 1 -1.447 .894l-4.553 -2.276v-4z" />
        <path d="M3 6m0 2a2 2 0 0 1 2 -2h8a2 2 0 0 1 2 2v8a2 2 0 0 1 -2 2h-8a2 2 0 0 1 -2 -2z" />
        <path d="M24.6 6.2a9.6 9.6 0 0 1 0 11.6" />
    </g>
</svg>
